# xmcd
#
# Track frame offsets:
#	150
#	11064
#	25973
#	41400
#	51788
#	72817
#	85561
#	100616
#	115541
#	128880
#	154315
#
# Disc length: 2485 seconds
#
# Revision: 0
# Processed by: cddbd v1.5PL3 Copyright (c) Steve Scherf et al.
# Submitted via: dBpowerAMP V4.0
#
DISCID=7e09b30b
DTITLE=Dwight Yoakam - Population Me
DYEAR=2003
DGENRE=
TTITLE0=The Late Great Golden State
TTITLE1=No Such Thing
TTITLE2=Fair To The Midland
TTITLE3=An Exception To The Rule
TTITLE4=Population Me
TTITLE5=Stayin' Up Late (Thinking About It)
TTITLE6=Trains and Boats and Planes
TTITLE7=If Teardrops Were Diamonds
TTITLE8=I'd Avoid Me Too
TTITLE9=The Back Of Your Hand
TTITLE10=DATA
EXTD=produced by pete anderson
EXTT0=
EXTT1=
EXTT2=
EXTT3=
EXTT4=
EXTT5=
EXTT6=
EXTT7=
EXTT8=
EXTT9=
EXTT10=
PLAYORDER=
